<svg width="1221" height="495" viewBox="0 0 1221 495" fill="none" xmlns="http://www.w3.org/2000/svg">
<path d="M945.481 366.604C932.938 361.283 923.816 354.441 918.114 346.079C912.413 337.717 909.562 327.644 909.562 315.861C909.562 305.218 912.413 295.906 918.114 287.924C924.196 279.942 932.178 273.67 942.06 269.109L942.06 267.399C932.558 259.797 925.526 250.294 920.965 238.891C916.784 227.108 914.693 213.615 914.693 198.411C914.693 168.003 924.576 144.817 944.341 128.853C964.106 112.889 998.315 104.907 1046.97 104.907C1086.88 104.907 1117.29 110.608 1138.19 122.011L1141.04 122.011C1147.12 112.129 1154.92 103.957 1164.42 97.495C1173.92 91.0333 1185.51 87.8025 1199.2 87.8025C1203.38 87.8025 1207.18 87.9925 1210.6 88.3726C1214.02 88.3726 1217.25 88.5627 1220.29 88.9428L1220.29 159.071C1213.07 157.551 1204.52 156.79 1194.64 156.79C1186.65 156.79 1179.05 157.55 1171.83 159.071C1176.01 170.094 1178.1 183.207 1178.1 198.411C1178.1 231.099 1168.22 254.666 1148.45 269.109C1128.69 283.553 1094.86 290.775 1046.97 290.775C1035.94 290.775 1025.68 290.395 1016.18 289.635C1006.68 288.874 997.935 287.734 989.953 286.214C988.432 289.254 987.672 292.865 987.672 297.046C987.672 303.128 989.573 308.259 993.374 312.44C997.555 316.241 1004.59 318.142 1014.47 318.142L1096.57 318.142C1131.54 318.142 1157.58 323.653 1174.68 334.676C1192.16 345.699 1200.91 366.984 1200.91 398.533C1200.91 429.701 1188.74 453.457 1164.42 469.801C1140.09 486.145 1099.04 494.317 1041.27 494.317C993.754 494.317 959.165 487.856 937.499 474.932C915.834 462.389 905.001 443.954 905.001 419.628C905.001 406.325 908.612 395.302 915.834 386.559C923.055 377.437 932.938 371.356 945.481 368.315L945.481 366.604ZM1046.97 229.769C1064.83 229.769 1077.38 227.679 1084.6 223.497C1091.82 218.936 1095.43 210.954 1095.43 199.551C1095.43 188.148 1091.82 179.786 1084.6 174.465C1077.38 169.143 1064.83 166.483 1046.97 166.483C1028.72 166.483 1015.99 169.143 1008.77 174.465C1001.55 179.786 997.935 188.148 997.935 199.551C997.935 210.954 1001.55 218.936 1008.77 223.497C1015.99 227.679 1028.72 229.769 1046.97 229.769ZM1052.1 427.04C1072.24 427.04 1087.07 426.09 1096.57 424.189C1106.07 422.289 1112.34 419.438 1115.38 415.637C1118.43 411.836 1119.95 407.085 1119.95 401.383C1119.95 394.922 1118.05 389.79 1114.24 385.989C1110.44 381.808 1104.74 379.718 1097.14 379.718L1009.91 379.718C1002.31 379.718 996.604 381.808 992.803 385.989C989.002 389.79 987.102 394.922 987.102 401.383C987.102 407.085 988.622 411.836 991.663 415.637C995.084 419.438 1001.36 422.289 1010.48 424.189C1019.98 426.09 1033.85 427.04 1052.1 427.04Z" fill="white"/>
<path d="M677.224 385.419L586 385.419L586 107.758L672.663 107.758L677.224 158.501L678.934 158.501C684.256 141.396 693.758 128.283 707.442 119.161C721.125 109.658 740.13 104.907 764.456 104.907C797.525 104.907 821.851 114.219 837.435 132.844C853.399 151.469 861.381 183.777 861.381 229.769L861.381 385.419L770.158 385.419L769.588 247.444C769.588 226.158 766.357 210.954 759.895 201.832C753.433 192.71 741.27 188.148 723.406 188.148C706.681 188.148 694.898 192.329 688.057 200.692C681.215 208.674 677.604 222.547 677.224 242.312L677.224 385.419Z" fill="white"/>
<path d="M535.253 4.5611C536.393 18.2446 536.963 29.6476 536.963 38.7699C536.963 44.0913 536.773 49.6027 536.393 55.3042C536.393 60.6256 536.013 66.7071 535.253 73.5489C527.271 75.0693 519.479 76.2096 511.877 76.9698C504.275 77.73 496.673 78.1101 489.071 78.1101C481.849 78.1101 474.437 77.7299 466.835 76.9698C459.613 76.2096 452.201 75.0692 444.599 73.5488C443.839 67.0872 443.269 61.1957 442.889 55.8743C442.509 50.1728 442.319 44.6614 442.319 39.34C442.319 34.3988 442.509 29.0774 442.889 23.3759C443.269 17.6745 443.839 11.4029 444.599 4.56109C452.201 2.6606 459.803 1.52032 467.405 1.14023C475.387 0.380024 483.179 -9.0496e-05 490.781 -8.91668e-05C498.003 -8.79041e-05 505.225 0.380029 512.447 1.14024C520.049 1.52033 527.651 2.66061 535.253 4.5611ZM534.682 386.56C534.682 413.547 532.022 434.642 526.7 449.846C521.379 465.43 512.447 476.263 499.903 482.344C487.74 488.426 471.396 491.467 450.871 491.467C439.088 491.467 428.065 490.706 417.802 489.186C407.92 488.046 398.607 486.145 389.865 483.484L389.865 409.936L391.575 408.795C395.757 409.555 400.128 410.126 404.689 410.506C408.87 411.266 414.001 411.646 420.083 411.646C429.965 411.646 436.237 409.556 438.898 405.374C441.938 401.573 443.459 394.352 443.459 383.709L443.459 107.758L534.682 107.758L534.682 386.56Z" fill="white"/>
<path d="M220.647 321.01L145.388 321.01L132.845 393.989L44.4719 393.989L56.445 321.01L0.000437839 321.01L10.8332 245.751L68.9882 245.751L78.6807 185.886L19.9556 185.886L30.7884 110.626L91.7941 110.626L104.337 32.5161L192.71 32.5161L180.167 110.626L255.426 110.626L267.97 32.5161L357.483 32.5161L344.369 110.626L397.393 110.626L387.13 185.886L331.826 185.886L321.563 245.751L378.008 245.751L366.605 321.011L309.02 321.01L296.477 393.989L208.104 393.989L220.647 321.01ZM242.313 185.886L167.054 185.886L157.361 245.751L232.62 245.751L242.313 185.886Z" fill="white"/>
</svg>
