<svg width="139" height="20" viewBox="0 0 139 20" fill="none" xmlns="http://www.w3.org/2000/svg">
<g clip-path="url(#clip0_685_1231)">
<path d="M7.2808 0.963232L4.7111 15.739H1.79879L4.36848 0.963232H7.2808ZM12.6557 0.963232L10.086 15.739H7.17373L9.74342 0.963232H12.6557ZM14.4331 4.58222L13.9834 6.87353H0.899393L1.34909 4.58222H14.4331ZM13.5337 9.40039L13.084 11.6917H0L0.449696 9.40039H13.5337Z" fill="white"/>
<path d="M20.0766 5.09616V14.8396C20.0766 15.5391 19.9481 16.2172 19.6911 16.8739C19.4341 17.5306 19.0701 18.1159 18.599 18.6299C18.1422 19.1581 17.5854 19.5721 16.9287 19.8719L14.7873 18.1588C15.3155 17.6163 15.6795 17.0809 15.8794 16.5527C16.0935 16.0388 16.2006 15.4677 16.2006 14.8396V5.09616H20.0766ZM18.9202 0.128082C19.6768 0.128082 20.0552 0.513537 20.0552 1.28444V2.39798C20.0552 3.16889 19.6768 3.55434 18.9202 3.55434H17.2499C16.4933 3.55434 16.115 3.16889 16.115 2.39798V1.28444C16.115 0.513537 16.4933 0.128082 17.2499 0.128082H18.9202Z" fill="white"/>
<path d="M27.6998 4.79636C29.0989 4.79636 30.2195 4.98195 31.0618 5.35313C31.9041 5.71003 32.5109 6.30249 32.882 7.1305C33.2532 7.94423 33.4388 9.04349 33.4388 10.4283C33.4388 11.7988 33.2532 12.8909 32.882 13.7046C32.5109 14.5041 31.9041 15.0894 31.0618 15.4606C30.2195 15.8175 29.0989 15.9959 27.6998 15.9959C26.3008 15.9959 25.1801 15.8175 24.3378 15.4606C23.4955 15.0894 22.8888 14.5041 22.5176 13.7046C22.1464 12.8909 21.9608 11.7988 21.9608 10.4283C21.9608 9.04349 22.1464 7.94423 22.5176 7.1305C22.8888 6.30249 23.4955 5.71003 24.3378 5.35313C25.1801 4.98195 26.3008 4.79636 27.6998 4.79636ZM27.6998 7.51595C27.2573 7.51595 26.9146 7.59447 26.6719 7.75151C26.4435 7.90854 26.2794 8.19406 26.1794 8.60807C26.0795 9.02208 26.0295 9.62881 26.0295 10.4283C26.0295 11.2135 26.0795 11.8131 26.1794 12.2271C26.2794 12.6411 26.4435 12.9266 26.6719 13.0836C26.9146 13.2264 27.2573 13.2978 27.6998 13.2978C28.1424 13.2978 28.485 13.2264 28.7277 13.0836C28.9704 12.9266 29.1346 12.6411 29.2202 12.2271C29.3202 11.8131 29.3701 11.2135 29.3701 10.4283C29.3701 9.62881 29.3202 9.02208 29.2202 8.60807C29.1346 8.19406 28.9704 7.90854 28.7277 7.75151C28.485 7.59447 28.1424 7.51595 27.6998 7.51595Z" fill="white"/>
<path d="M42.4239 4.79636C43.88 4.79636 44.9079 5.22464 45.5075 6.08121C46.1071 6.93777 46.4069 8.34396 46.4069 10.2998C46.4069 11.0707 46.3284 11.7988 46.1713 12.484C46.0286 13.155 45.7645 13.7617 45.379 14.3042C44.9936 14.8324 44.4368 15.2464 43.7087 15.5462C42.9949 15.846 42.0598 15.9959 40.9035 15.9959C40.518 15.9959 40.0612 15.9745 39.533 15.9317C39.019 15.9031 38.4837 15.8532 37.9269 15.7818C37.3844 15.7104 36.8705 15.6248 36.3851 15.5248C35.8997 15.4106 35.5 15.2821 35.1859 15.1394L38.2909 12.9766C38.4908 13.0479 38.7406 13.1122 39.0404 13.1693C39.3545 13.2264 39.6686 13.2692 39.9827 13.2978C40.311 13.312 40.5894 13.3192 40.8178 13.3192C41.2175 13.2906 41.5316 13.1978 41.76 13.0408C41.9884 12.8695 42.1526 12.5697 42.2526 12.1414C42.3525 11.7131 42.4025 11.1064 42.4025 10.3212C42.4025 9.63595 42.3596 9.11487 42.274 8.75797C42.1883 8.38679 42.0241 8.12982 41.7814 7.98706C41.553 7.8443 41.2318 7.77292 40.8178 7.77292C40.4038 7.77292 40.0398 7.8443 39.7257 7.98706C39.4116 8.11555 39.069 8.28686 38.6978 8.501L38.4194 6.87353C38.7478 6.50235 39.119 6.15972 39.533 5.84565C39.947 5.53158 40.3967 5.28175 40.882 5.09616C41.3817 4.89629 41.8957 4.79636 42.4239 4.79636ZM39.0619 0.749091L39.1047 3.9398C39.119 4.43946 39.0904 4.93912 39.019 5.43878C38.9619 5.92417 38.8477 6.38814 38.6764 6.8307L39.0619 7.10908V15.3107L35.1859 15.1394V0.749091H39.0619Z" fill="white"/>
<path d="M56.1165 4.79636C58.1723 4.79636 59.2001 5.78855 59.2001 7.77292V15.739H55.3028V8.99352C55.3028 8.6509 55.2314 8.41534 55.0886 8.28686C54.9602 8.15837 54.7246 8.09413 54.382 8.09413C54.0251 8.09413 53.6396 8.1441 53.2256 8.24403C52.8259 8.34396 52.3191 8.52955 51.7052 8.8008L51.5125 6.78787C52.2548 6.13117 53.0186 5.63865 53.8038 5.3103C54.589 4.96767 55.3599 4.79636 56.1165 4.79636ZM51.2983 5.09616L51.7695 7.23757L52.1121 7.51595V15.739H48.2147V5.09616H51.2983Z" fill="white"/>
<path d="M67.237 4.79636C68.1935 4.79636 69.0001 4.92484 69.6568 5.18181C70.3277 5.43878 70.8345 5.86706 71.1772 6.46666C71.5198 7.06625 71.6911 7.89427 71.6911 8.9507V15.739H68.5861L68.0507 13.4477L67.7937 13.0622V8.92928C67.7795 8.48672 67.6653 8.17265 67.4511 7.98706C67.2512 7.7872 66.8801 7.68726 66.3376 7.68726C65.7808 7.68726 65.0956 7.70154 64.2818 7.73009C63.4681 7.74437 62.6187 7.78006 61.7335 7.83716L61.3909 5.33171C61.9191 5.23178 62.533 5.14612 63.2325 5.07474C63.9463 4.98909 64.6601 4.92484 65.3739 4.88202C66.0877 4.82491 66.7088 4.79636 67.237 4.79636ZM70.1493 9.20767L70.1279 11.1778H65.5667C65.2383 11.192 64.9956 11.2777 64.8386 11.4347C64.6958 11.5775 64.6244 11.7774 64.6244 12.0343V12.4412C64.6244 12.7124 64.7101 12.9266 64.8814 13.0836C65.067 13.2264 65.3383 13.2978 65.6952 13.2978C66.0521 13.2978 66.4304 13.2192 66.8301 13.0622C67.2298 12.9052 67.6224 12.691 68.0079 12.4198C68.3933 12.1485 68.7288 11.8559 69.0143 11.5418V12.9123C68.9001 13.1407 68.7217 13.4262 68.479 13.7689C68.2506 14.1115 67.9508 14.4613 67.5796 14.8182C67.2084 15.1608 66.7587 15.4463 66.2305 15.6747C65.7023 15.9031 65.0884 16.0174 64.3889 16.0174C63.7465 16.0174 63.154 15.9031 62.6115 15.6747C62.069 15.4463 61.6336 15.1108 61.3053 14.6683C60.9912 14.2257 60.8341 13.6689 60.8341 12.998V11.9273C60.8341 11.0707 61.1339 10.4069 61.7335 9.93575C62.3474 9.45036 63.1754 9.20767 64.2176 9.20767H70.1493Z" fill="white"/>
<path d="M78.7589 4.79636C80.058 4.79636 81.0859 4.91057 81.8426 5.13898C82.6135 5.3674 83.1631 5.7243 83.4914 6.20969C83.8341 6.69508 84.0054 7.35178 84.0054 8.17979C84.0054 8.99353 83.8412 9.65022 83.5129 10.1499C83.1845 10.6353 82.6277 10.9922 81.8426 11.2206C81.0717 11.4347 80.0366 11.5418 78.7375 11.5418C77.4527 11.5418 76.4177 11.4347 75.6325 11.2206C74.8616 10.9922 74.3048 10.6353 73.9622 10.1499C73.6195 9.65022 73.4482 8.99353 73.4482 8.17979C73.4482 7.36605 73.6195 6.71649 73.9622 6.2311C74.3191 5.73144 74.883 5.3674 75.6539 5.13898C76.4391 4.91057 77.4741 4.79636 78.7589 4.79636ZM78.7375 7.02343C78.0951 7.02343 77.6525 7.10908 77.4098 7.2804C77.1814 7.43743 77.0672 7.73723 77.0672 8.17979C77.0672 8.62235 77.1814 8.92928 77.4098 9.1006C77.6525 9.25763 78.0951 9.33615 78.7375 9.33615C79.3942 9.33615 79.8368 9.25763 80.0652 9.1006C80.2936 8.92928 80.4078 8.62235 80.4078 8.17979C80.4078 7.73723 80.2936 7.43743 80.0652 7.2804C79.8368 7.10908 79.3942 7.02343 78.7375 7.02343ZM85.226 5.09616L85.0333 6.59514L82.1209 7.04484L81.3286 5.09616H85.226ZM75.4397 10.9208L77.2814 11.242C77.11 11.3134 76.9816 11.4561 76.8959 11.6703C76.8245 11.8702 76.8459 12.07 76.9601 12.2699C77.0744 12.4555 77.3028 12.5625 77.6454 12.5911L81.5428 12.9337C82.7277 13.0337 83.5628 13.3549 84.0482 13.8974C84.5479 14.4256 84.7977 15.1965 84.7977 16.2101C84.7977 17.1666 84.5978 17.8947 84.1981 18.3943C83.7984 18.9083 83.1631 19.258 82.2923 19.4436C81.4357 19.6292 80.3007 19.722 78.8874 19.722C77.6739 19.722 76.6818 19.6649 75.9109 19.5507C75.1542 19.4365 74.5618 19.258 74.1335 19.0153C73.7052 18.7869 73.4054 18.4728 73.2341 18.0731C73.077 17.6877 72.9985 17.2094 72.9985 16.6384C72.9985 16.1958 73.077 15.8104 73.2341 15.482C73.4054 15.1537 73.7052 14.861 74.1335 14.604C74.576 14.3471 75.1828 14.1115 75.9537 13.8974L77.6668 13.4262L78.9945 13.9188L78.2236 14.3899C77.8238 14.6754 77.5098 14.8967 77.2814 15.0537C77.0529 15.2108 76.8888 15.3607 76.7888 15.5034C76.6889 15.6319 76.6389 15.8246 76.6389 16.0816C76.6389 16.3386 76.7032 16.5313 76.8317 16.6598C76.9601 16.8025 77.1814 16.8953 77.4955 16.9382C77.8238 16.9953 78.2664 17.0238 78.8232 17.0238C79.437 17.0238 79.9082 16.9953 80.2365 16.9382C80.5791 16.8953 80.8147 16.8097 80.9432 16.6812C81.0859 16.567 81.1573 16.3957 81.1573 16.1673C81.1573 15.9388 81.1002 15.7747 80.986 15.6747C80.8718 15.5748 80.6862 15.5034 80.4292 15.4606C80.1865 15.4035 79.8582 15.3535 79.4442 15.3107L76.3391 15.0323C75.7538 14.9752 75.2827 14.8182 74.9258 14.5612C74.5832 14.3042 74.3476 13.9973 74.2191 13.6404C74.0907 13.2692 74.055 12.898 74.1121 12.5269C74.1692 12.1557 74.3119 11.8273 74.5403 11.5418C74.783 11.242 75.0828 11.035 75.4397 10.9208Z" fill="white"/>
<path d="M89.5249 5.09616L89.996 7.23757L90.3814 7.51595V15.739H86.4841V5.09616H89.5249ZM94.7071 4.79636L94.3645 8.37252H93.3366C92.9083 8.37252 92.4372 8.41534 91.9233 8.501C91.4093 8.58666 90.7598 8.72942 89.9746 8.92928L89.739 6.80929C90.4528 6.13831 91.1809 5.63865 91.9233 5.3103C92.6799 4.96767 93.408 4.79636 94.1075 4.79636H94.7071Z" fill="white"/>
<path d="M99.8771 5.09616V15.739H96.0011V5.09616H99.8771ZM98.7636 0.299396C99.5202 0.299396 99.8985 0.684849 99.8985 1.45576V2.56929C99.8985 3.3402 99.5202 3.72565 98.7636 3.72565H97.0933C96.3366 3.72565 95.9583 3.3402 95.9583 2.56929V1.45576C95.9583 0.684849 96.3366 0.299396 97.0933 0.299396H98.7636Z" fill="white"/>
<path d="M110.049 4.79636C112.105 4.79636 113.133 5.78855 113.133 7.77292V15.739H109.235V8.99352C109.235 8.6509 109.164 8.41534 109.021 8.28686C108.893 8.15837 108.657 8.09413 108.315 8.09413C107.958 8.09413 107.572 8.1441 107.158 8.24403C106.758 8.34396 106.252 8.52955 105.638 8.8008L105.445 6.78787C106.187 6.13117 106.951 5.63865 107.736 5.3103C108.522 4.96767 109.293 4.79636 110.049 4.79636ZM105.231 5.09616L105.702 7.23757L106.045 7.51595V15.739H102.147V5.09616H105.231Z" fill="white"/>
<path d="M120.249 4.79636C121.548 4.79636 122.576 4.91057 123.332 5.13898C124.103 5.3674 124.653 5.7243 124.981 6.20969C125.324 6.69508 125.495 7.35178 125.495 8.17979C125.495 8.99353 125.331 9.65022 125.003 10.1499C124.674 10.6353 124.118 10.9922 123.332 11.2206C122.561 11.4347 121.526 11.5418 120.227 11.5418C118.943 11.5418 117.907 11.4347 117.122 11.2206C116.351 10.9922 115.795 10.6353 115.452 10.1499C115.109 9.65022 114.938 8.99353 114.938 8.17979C114.938 7.36605 115.109 6.71649 115.452 6.2311C115.809 5.73144 116.373 5.3674 117.144 5.13898C117.929 4.91057 118.964 4.79636 120.249 4.79636ZM120.227 7.02343C119.585 7.02343 119.142 7.10908 118.9 7.2804C118.671 7.43743 118.557 7.73723 118.557 8.17979C118.557 8.62235 118.671 8.92928 118.9 9.1006C119.142 9.25763 119.585 9.33615 120.227 9.33615C120.884 9.33615 121.327 9.25763 121.555 9.1006C121.783 8.92928 121.898 8.62235 121.898 8.17979C121.898 7.73723 121.783 7.43743 121.555 7.2804C121.327 7.10908 120.884 7.02343 120.227 7.02343ZM126.716 5.09616L126.523 6.59514L123.611 7.04484L122.818 5.09616H126.716ZM116.93 10.9208L118.771 11.242C118.6 11.3134 118.471 11.4561 118.386 11.6703C118.314 11.8702 118.336 12.07 118.45 12.2699C118.564 12.4555 118.793 12.5625 119.135 12.5911L123.033 12.9337C124.218 13.0337 125.053 13.3549 125.538 13.8974C126.038 14.4256 126.288 15.1965 126.288 16.2101C126.288 17.1666 126.088 17.8947 125.688 18.3943C125.288 18.9083 124.653 19.258 123.782 19.4436C122.926 19.6292 121.791 19.722 120.377 19.722C119.164 19.722 118.172 19.6649 117.401 19.5507C116.644 19.4365 116.052 19.258 115.623 19.0153C115.195 18.7869 114.895 18.4728 114.724 18.0731C114.567 17.6877 114.488 17.2094 114.488 16.6384C114.488 16.1958 114.567 15.8104 114.724 15.482C114.895 15.1537 115.195 14.861 115.623 14.604C116.066 14.3471 116.673 14.1115 117.444 13.8974L119.157 13.4262L120.484 13.9188L119.713 14.3899C119.314 14.6754 119 14.8967 118.771 15.0537C118.543 15.2108 118.379 15.3607 118.279 15.5034C118.179 15.6319 118.129 15.8246 118.129 16.0816C118.129 16.3386 118.193 16.5313 118.322 16.6598C118.45 16.8025 118.671 16.8953 118.985 16.9382C119.314 16.9953 119.756 17.0238 120.313 17.0238C120.927 17.0238 121.398 16.9953 121.726 16.9382C122.069 16.8953 122.305 16.8097 122.433 16.6812C122.576 16.567 122.647 16.3957 122.647 16.1673C122.647 15.9388 122.59 15.7747 122.476 15.6747C122.362 15.5748 122.176 15.5034 121.919 15.4606C121.676 15.4035 121.348 15.3535 120.934 15.3107L117.829 15.0323C117.244 14.9752 116.773 14.8182 116.416 14.5612C116.073 14.3042 115.837 13.9973 115.709 13.6404C115.58 13.2692 115.545 12.898 115.602 12.5269C115.659 12.1557 115.802 11.8273 116.03 11.5418C116.273 11.242 116.573 11.035 116.93 10.9208Z" fill="white"/>
<path d="M133.801 4.79636C134.757 4.79636 135.564 4.92484 136.22 5.18181C136.891 5.43878 137.398 5.86706 137.741 6.46666C138.083 7.06625 138.255 7.89427 138.255 8.9507V15.739H135.15L134.614 13.4477L134.357 13.0622V8.92928C134.343 8.48672 134.229 8.17265 134.015 7.98706C133.815 7.7872 133.444 7.68726 132.901 7.68726C132.344 7.68726 131.659 7.70154 130.845 7.73009C130.032 7.74437 129.182 7.78006 128.297 7.83716L127.955 5.33171C128.483 5.23178 129.097 5.14612 129.796 5.07474C130.51 4.98909 131.224 4.92484 131.938 4.88202C132.651 4.82491 133.272 4.79636 133.801 4.79636ZM136.713 9.20767L136.691 11.1778H132.13C131.802 11.192 131.559 11.2777 131.402 11.4347C131.259 11.5775 131.188 11.7774 131.188 12.0343V12.4412C131.188 12.7124 131.274 12.9266 131.445 13.0836C131.631 13.2264 131.902 13.2978 132.259 13.2978C132.616 13.2978 132.994 13.2192 133.394 13.0622C133.793 12.9052 134.186 12.691 134.571 12.4198C134.957 12.1485 135.292 11.8559 135.578 11.5418V12.9123C135.464 13.1407 135.285 13.4262 135.043 13.7689C134.814 14.1115 134.514 14.4613 134.143 14.8182C133.772 15.1608 133.322 15.4463 132.794 15.6747C132.266 15.9031 131.652 16.0174 130.952 16.0174C130.31 16.0174 129.718 15.9031 129.175 15.6747C128.633 15.4463 128.197 15.1108 127.869 14.6683C127.555 14.2257 127.398 13.6689 127.398 12.998V11.9273C127.398 11.0707 127.698 10.4069 128.297 9.93575C128.911 9.45036 129.739 9.20767 130.781 9.20767H136.713Z" fill="white"/>
</g>
<defs>
<clipPath id="clip0_685_1231">
<rect width="138.255" height="19.7438" fill="white" transform="translate(0 0.128082)"/>
</clipPath>
</defs>
</svg>
