<svg width="156" height="23" viewBox="0 0 156 23" fill="none" xmlns="http://www.w3.org/2000/svg">
<path d="M8.36919 1.42097L5.48825 18.0001H2.2232L5.10413 1.42097L8.36919 1.42097ZM14.3951 1.42097L11.5142 18.0001L8.24915 18.0001L11.1301 1.42097L14.3951 1.42097ZM16.3878 5.48166L15.8836 8.05263L1.21487 8.05263L1.71903 5.48166L16.3878 5.48166ZM15.3795 10.8879L14.8753 13.4589L0.206543 13.4589L0.710706 10.8879L15.3795 10.8879Z" fill="#006BFF"/>
<path d="M22.7148 6.05833L22.7148 16.991C22.7148 17.7759 22.5707 18.5368 22.2826 19.2736C21.9945 20.0105 21.5864 20.6672 21.0582 21.2439C20.5461 21.8366 19.9219 22.3011 19.1856 22.6375L16.7848 20.7153C17.377 20.1066 17.7852 19.5059 18.0092 18.9132C18.2493 18.3365 18.3694 17.6958 18.3694 16.991L18.3694 6.05833L22.7148 6.05833ZM21.4183 0.483887C22.2666 0.483887 22.6908 0.916387 22.6908 1.78139V3.03083C22.6908 3.89583 22.2666 4.32833 21.4183 4.32833H19.5457C18.6975 4.32833 18.2733 3.89583 18.2733 3.03083V1.78139C18.2733 0.916387 18.6975 0.483887 19.5457 0.483887L21.4183 0.483887Z" fill="#006BFF"/>
<path d="M31.2613 5.72194C32.8299 5.72194 34.0863 5.93018 35.0306 6.34666C35.9749 6.74713 36.6551 7.41189 37.0712 8.34097C37.4874 9.25402 37.6954 10.4874 37.6954 12.0412C37.6954 13.579 37.4874 14.8044 37.0712 15.7175C36.6551 16.6145 35.9749 17.2713 35.0306 17.6878C34.0863 18.0882 32.8299 18.2885 31.2613 18.2885C29.6928 18.2885 28.4364 18.0882 27.4921 17.6878C26.5478 17.2713 25.8676 16.6145 25.4515 15.7175C25.0353 14.8044 24.8273 13.579 24.8273 12.0412C24.8273 10.4874 25.0353 9.25402 25.4515 8.34097C25.8676 7.41189 26.5478 6.74713 27.4921 6.34666C28.4364 5.93018 29.6928 5.72194 31.2613 5.72194ZM31.2613 8.77347C30.7652 8.77347 30.3811 8.86157 30.109 9.03777C29.8529 9.21398 29.6688 9.53435 29.5568 9.99889C29.4448 10.4634 29.3887 11.1442 29.3887 12.0412C29.3887 12.9223 29.4448 13.595 29.5568 14.0596C29.6688 14.5241 29.8529 14.8445 30.109 15.0207C30.3811 15.1809 30.7652 15.261 31.2613 15.261C31.7575 15.261 32.1416 15.1809 32.4137 15.0207C32.6858 14.8445 32.8699 14.5241 32.9659 14.0596C33.0779 13.595 33.134 12.9223 33.134 12.0412C33.134 11.1442 33.0779 10.4634 32.9659 9.99889C32.8699 9.53435 32.6858 9.21398 32.4137 9.03777C32.1416 8.86157 31.7575 8.77347 31.2613 8.77347Z" fill="#006BFF"/>
<path d="M47.7688 5.72194C49.4013 5.72194 50.5537 6.2025 51.2259 7.16361C51.8981 8.12472 52.2342 9.70254 52.2342 11.8971C52.2342 12.7621 52.1462 13.579 51.9701 14.3479C51.8101 15.1008 51.514 15.7816 51.0818 16.3903C50.6497 16.983 50.0255 17.4475 49.2092 17.7839C48.409 18.1203 47.3606 18.2885 46.0642 18.2885C45.6321 18.2885 45.1199 18.2644 44.5277 18.2164C43.9515 18.1843 43.3513 18.1283 42.7271 18.0482C42.1189 17.9681 41.5427 17.872 40.9986 17.7599C40.4544 17.6317 40.0062 17.4875 39.6541 17.3274L43.1353 14.9005C43.3593 14.9806 43.6394 15.0527 43.9755 15.1168C44.3276 15.1809 44.6798 15.2289 45.0319 15.261C45.4 15.277 45.7121 15.285 45.9682 15.285C46.4163 15.253 46.7684 15.1488 47.0245 14.9726C47.2806 14.7804 47.4647 14.444 47.5767 13.9635C47.6887 13.4829 47.7447 12.8021 47.7447 11.9211C47.7447 11.1522 47.6967 10.5675 47.6007 10.1671C47.5047 9.7506 47.3206 9.46226 47.0485 9.30208C46.7924 9.14189 46.4323 9.0618 45.9682 9.0618C45.504 9.0618 45.0959 9.14189 44.7438 9.30208C44.3917 9.44625 44.0075 9.63847 43.5914 9.87875L43.2793 8.05263C43.6474 7.63615 44.0636 7.25171 44.5277 6.8993C44.9919 6.54689 45.496 6.26657 46.0402 6.05833C46.6004 5.83407 47.1766 5.72194 47.7688 5.72194ZM43.9995 1.18069L44.0476 4.76083C44.0636 5.32148 44.0315 5.88213 43.9515 6.44277C43.8875 6.9874 43.7595 7.50801 43.5674 8.00458L43.9995 8.31694V17.5196L39.6541 17.3274V1.18069L43.9995 1.18069Z" fill="#006BFF"/>
<path d="M63.1199 5.72194C65.4246 5.72194 66.577 6.83523 66.577 9.0618V18.0001H62.2076V10.4314C62.2076 10.0469 62.1275 9.78263 61.9675 9.63847C61.8234 9.4943 61.5593 9.42222 61.1752 9.42222C60.7751 9.42222 60.343 9.47828 59.8788 9.59041C59.4307 9.70254 58.8625 9.91078 58.1742 10.2151L57.9582 7.95652C58.7904 7.21967 59.6467 6.66703 60.527 6.29861C61.4073 5.91416 62.2716 5.72194 63.1199 5.72194ZM57.7181 6.05833L58.2463 8.46111L58.6304 8.77347V18.0001L54.261 18.0001V6.05833H57.7181Z" fill="#006BFF"/>
<path d="M75.5872 5.72194C76.6595 5.72194 77.5638 5.86611 78.3001 6.15444C79.0523 6.44277 79.6205 6.92333 80.0046 7.59611C80.3888 8.26888 80.5808 9.19796 80.5808 10.3833V18.0001L77.0997 18.0001L76.4995 15.4292L76.2114 14.9967V10.3593C76.1954 9.86273 76.0674 9.51032 75.8273 9.30208C75.6032 9.07782 75.1871 8.96569 74.5789 8.96569C73.9547 8.96569 73.1864 8.98171 72.2741 9.01375C71.3618 9.02976 70.4095 9.06981 69.4172 9.13388L69.0331 6.32264C69.6253 6.21051 70.3135 6.11439 71.0978 6.0343C71.898 5.93819 72.6983 5.86611 73.4985 5.81805C74.2988 5.75398 74.995 5.72194 75.5872 5.72194ZM78.8523 10.6717L78.8282 12.8822H73.7146C73.3465 12.8982 73.0744 12.9943 72.8983 13.1706C72.7383 13.3307 72.6582 13.555 72.6582 13.8433V14.2999C72.6582 14.6042 72.7543 14.8445 72.9463 15.0207C73.1544 15.1809 73.4585 15.261 73.8586 15.261C74.2588 15.261 74.6829 15.1729 75.131 14.9967C75.5792 14.8205 76.0193 14.5802 76.4515 14.2758C76.8836 13.9715 77.2597 13.6431 77.5798 13.2907V14.8285C77.4518 15.0848 77.2517 15.4051 76.9797 15.7896C76.7236 16.174 76.3875 16.5665 75.9713 16.9669C75.5552 17.3514 75.051 17.6718 74.4588 17.9281C73.8666 18.1843 73.1784 18.3125 72.3942 18.3125C71.6739 18.3125 71.0097 18.1843 70.4015 17.9281C69.7933 17.6718 69.3052 17.2953 68.937 16.7987C68.5849 16.3022 68.4089 15.6774 68.4089 14.9246V13.7232C68.4089 12.7621 68.745 12.0172 69.4172 11.4886C70.1054 10.944 71.0337 10.6717 72.2021 10.6717H78.8523Z" fill="#006BFF"/>
<path d="M88.5047 5.72194C89.9612 5.72194 91.1135 5.85009 91.9618 6.10639C92.8261 6.36268 93.4423 6.76314 93.8104 7.30777C94.1945 7.8524 94.3866 8.58925 94.3866 9.51833C94.3866 10.4314 94.2025 11.1682 93.8344 11.7289C93.4663 12.2735 92.8421 12.674 91.9618 12.9303C91.0975 13.1706 89.9372 13.2907 88.4807 13.2907C87.0402 13.2907 85.8798 13.1706 84.9996 12.9303C84.1353 12.674 83.5111 12.2735 83.127 11.7289C82.7428 11.1682 82.5508 10.4314 82.5508 9.51833C82.5508 8.60527 82.7428 7.87643 83.127 7.3318C83.5271 6.77115 84.1593 6.36268 85.0236 6.10639C85.9039 5.85009 87.0642 5.72194 88.5047 5.72194ZM88.4807 8.22083C87.7605 8.22083 87.2643 8.31694 86.9922 8.50916C86.7361 8.68537 86.6081 9.02175 86.6081 9.51833C86.6081 10.0149 86.7361 10.3593 86.9922 10.5515C87.2643 10.7277 87.7605 10.8158 88.4807 10.8158C89.2169 10.8158 89.7131 10.7277 89.9692 10.5515C90.2253 10.3593 90.3533 10.0149 90.3533 9.51833C90.3533 9.02175 90.2253 8.68537 89.9692 8.50916C89.7131 8.31694 89.2169 8.22083 88.4807 8.22083ZM95.755 6.05833L95.539 7.74027L92.2739 8.24486L91.3856 6.05833H95.755ZM84.7835 12.5939L86.8482 12.9543C86.6561 13.0344 86.5121 13.1946 86.416 13.4349C86.336 13.6591 86.36 13.8834 86.488 14.1076C86.6161 14.3159 86.8722 14.436 87.2563 14.4681L91.6257 14.8525C92.9541 14.9646 93.8904 15.325 94.4346 15.9337C94.9948 16.5264 95.2749 17.3914 95.2749 18.5287C95.2749 19.602 95.0508 20.4189 94.6027 20.9796C94.1545 21.5562 93.4423 21.9487 92.466 22.1569C91.5057 22.3652 90.2333 22.4693 88.6487 22.4693C87.2883 22.4693 86.1759 22.4052 85.3117 22.2771C84.4634 22.1489 83.7992 21.9487 83.319 21.6764C82.8389 21.4201 82.5028 21.0677 82.3107 20.6192C82.1346 20.1867 82.0466 19.65 82.0466 19.0093C82.0466 18.5127 82.1346 18.0802 82.3107 17.7118C82.5028 17.3434 82.8389 17.015 83.319 16.7267C83.8152 16.4383 84.4954 16.174 85.3597 15.9337L87.2803 15.4051L88.7688 15.9578L87.9045 16.4864C87.4564 16.8068 87.1042 17.055 86.8482 17.2312C86.5921 17.4074 86.408 17.5756 86.296 17.7358C86.1839 17.88 86.1279 18.0962 86.1279 18.3846C86.1279 18.6729 86.1999 18.8892 86.344 19.0333C86.488 19.1935 86.7361 19.2976 87.0882 19.3457C87.4564 19.4098 87.9525 19.4418 88.5767 19.4418C89.2649 19.4418 89.7931 19.4098 90.1612 19.3457C90.5454 19.2976 90.8094 19.2015 90.9535 19.0574C91.1135 18.9292 91.1936 18.737 91.1936 18.4807C91.1936 18.2244 91.1295 18.0402 91.0015 17.9281C90.8735 17.8159 90.6654 17.7358 90.3773 17.6878C90.1052 17.6237 89.7371 17.5676 89.2729 17.5196L85.7918 17.2072C85.1356 17.1431 84.6074 16.9669 84.2073 16.6786C83.8232 16.3903 83.5591 16.0459 83.4151 15.6454C83.271 15.2289 83.231 14.8124 83.295 14.396C83.359 13.9795 83.5191 13.6111 83.7752 13.2907C84.0473 12.9543 84.3834 12.722 84.7835 12.5939Z" fill="#006BFF"/>
<path d="M100.575 6.05833L101.103 8.46111L101.535 8.77347V18.0001L97.1655 18.0001V6.05833H100.575ZM106.384 5.72194L106 9.73458L104.848 9.73458C104.368 9.73458 103.84 9.78263 103.263 9.87875C102.687 9.97486 101.959 10.135 101.079 10.3593L100.815 7.98055C101.615 7.22768 102.431 6.66703 103.263 6.29861C104.112 5.91416 104.928 5.72194 105.712 5.72194H106.384Z" fill="#006BFF"/>
<path d="M112.181 6.05833V18.0001H107.835V6.05833L112.181 6.05833ZM110.932 0.676109C111.781 0.676109 112.205 1.10861 112.205 1.97361V3.22305C112.205 4.08805 111.781 4.52055 110.932 4.52055H109.06C108.211 4.52055 107.787 4.08805 107.787 3.22305V1.97361C107.787 1.10861 108.211 0.676109 109.06 0.676109L110.932 0.676109Z" fill="#006BFF"/>
<path d="M123.585 5.72194C125.889 5.72194 127.042 6.83523 127.042 9.0618V18.0001H122.672V10.4314C122.672 10.0469 122.592 9.78263 122.432 9.63847C122.288 9.4943 122.024 9.42222 121.64 9.42222C121.24 9.42222 120.808 9.47828 120.344 9.59041C119.896 9.70254 119.327 9.91078 118.639 10.2151L118.423 7.95652C119.255 7.21967 120.112 6.66703 120.992 6.29861C121.872 5.91416 122.736 5.72194 123.585 5.72194ZM118.183 6.05833L118.711 8.46111L119.095 8.77347V18.0001H114.726V6.05833H118.183Z" fill="#006BFF"/>
<path d="M135.02 5.72194C136.476 5.72194 137.629 5.85009 138.477 6.10639C139.341 6.36268 139.957 6.76314 140.325 7.30777C140.71 7.8524 140.902 8.58925 140.902 9.51833C140.902 10.4314 140.718 11.1682 140.349 11.7289C139.981 12.2735 139.357 12.674 138.477 12.9303C137.613 13.1706 136.452 13.2907 134.996 13.2907C133.555 13.2907 132.395 13.1706 131.515 12.9303C130.65 12.674 130.026 12.2735 129.642 11.7289C129.258 11.1682 129.066 10.4314 129.066 9.51833C129.066 8.60527 129.258 7.87643 129.642 7.3318C130.042 6.77115 130.674 6.36268 131.539 6.10639C132.419 5.85009 133.579 5.72194 135.02 5.72194ZM134.996 8.22083C134.276 8.22083 133.779 8.31694 133.507 8.50916C133.251 8.68537 133.123 9.02175 133.123 9.51833C133.123 10.0149 133.251 10.3593 133.507 10.5515C133.779 10.7277 134.276 10.8158 134.996 10.8158C135.732 10.8158 136.228 10.7277 136.484 10.5515C136.74 10.3593 136.868 10.0149 136.868 9.51833C136.868 9.02175 136.74 8.68537 136.484 8.50916C136.228 8.31694 135.732 8.22083 134.996 8.22083ZM142.27 6.05833L142.054 7.74027L138.789 8.24486L137.901 6.05833L142.27 6.05833ZM131.299 12.5939L133.363 12.9543C133.171 13.0344 133.027 13.1946 132.931 13.4349C132.851 13.6591 132.875 13.8834 133.003 14.1076C133.131 14.3159 133.387 14.436 133.771 14.4681L138.141 14.8525C139.469 14.9646 140.405 15.325 140.95 15.9337C141.51 16.5264 141.79 17.3914 141.79 18.5287C141.79 19.602 141.566 20.4189 141.118 20.9796C140.67 21.5562 139.957 21.9487 138.981 22.1569C138.021 22.3652 136.748 22.4693 135.164 22.4693C133.803 22.4693 132.691 22.4052 131.827 22.2771C130.978 22.1489 130.314 21.9487 129.834 21.6764C129.354 21.4201 129.018 21.0677 128.826 20.6192C128.65 20.1867 128.562 19.65 128.562 19.0093C128.562 18.5127 128.65 18.0802 128.826 17.7118C129.018 17.3434 129.354 17.015 129.834 16.7267C130.33 16.4383 131.01 16.174 131.875 15.9337L133.795 15.4051L135.284 15.9578L134.42 16.4864C133.971 16.8068 133.619 17.055 133.363 17.2312C133.107 17.4074 132.923 17.5756 132.811 17.7358C132.699 17.88 132.643 18.0962 132.643 18.3846C132.643 18.6729 132.715 18.8892 132.859 19.0333C133.003 19.1935 133.251 19.2976 133.603 19.3457C133.971 19.4098 134.468 19.4418 135.092 19.4418C135.78 19.4418 136.308 19.4098 136.676 19.3457C137.06 19.2976 137.324 19.2015 137.469 19.0574C137.629 18.9292 137.709 18.737 137.709 18.4807C137.709 18.2244 137.645 18.0402 137.517 17.9281C137.389 17.8159 137.18 17.7358 136.892 17.6878C136.62 17.6237 136.252 17.5676 135.788 17.5196L132.307 17.2072C131.651 17.1431 131.122 16.9669 130.722 16.6786C130.338 16.3903 130.074 16.0459 129.93 15.6454C129.786 15.2289 129.746 14.8124 129.81 14.396C129.874 13.9795 130.034 13.6111 130.29 13.2907C130.562 12.9543 130.898 12.722 131.299 12.5939Z" fill="#006BFF"/>
<path d="M150.213 5.72194C151.285 5.72194 152.19 5.86611 152.926 6.15444C153.678 6.44277 154.246 6.92333 154.63 7.59611C155.014 8.26888 155.207 9.19796 155.207 10.3833V18.0001H151.725L151.125 15.4292L150.837 14.9967V10.3593C150.821 9.86273 150.693 9.51032 150.453 9.30208C150.229 9.07782 149.813 8.96569 149.205 8.96569C148.58 8.96569 147.812 8.98171 146.9 9.01375C145.988 9.02976 145.035 9.06981 144.043 9.13388L143.659 6.32264C144.251 6.21051 144.939 6.11439 145.723 6.0343C146.524 5.93819 147.324 5.86611 148.124 5.81805C148.925 5.75398 149.621 5.72194 150.213 5.72194ZM153.478 10.6717L153.454 12.8822L148.34 12.8822C147.972 12.8982 147.7 12.9943 147.524 13.1706C147.364 13.3307 147.284 13.555 147.284 13.8433V14.2999C147.284 14.6042 147.38 14.8445 147.572 15.0207C147.78 15.1809 148.084 15.261 148.484 15.261C148.884 15.261 149.309 15.1729 149.757 14.9967C150.205 14.8205 150.645 14.5802 151.077 14.2758C151.509 13.9715 151.885 13.6431 152.206 13.2907V14.8285C152.078 15.0848 151.877 15.4051 151.605 15.7896C151.349 16.174 151.013 16.5665 150.597 16.9669C150.181 17.3514 149.677 17.6718 149.085 17.9281C148.492 18.1843 147.804 18.3125 147.02 18.3125C146.3 18.3125 145.635 18.1843 145.027 17.9281C144.419 17.6718 143.931 17.2953 143.563 16.7987C143.211 16.3022 143.035 15.6774 143.035 14.9246V13.7232C143.035 12.7621 143.371 12.0172 144.043 11.4886C144.731 10.944 145.659 10.6717 146.828 10.6717L153.478 10.6717Z" fill="#006BFF"/>
</svg>
