<svg width="248" height="76" viewBox="0 0 248 76" fill="none" xmlns="http://www.w3.org/2000/svg">
<path d="M149.654 25.2334H160.728L146.402 42.3987L162.871 63.5339H150.485L137.192 44.4482V63.5339H127.592V12H137.192V40.8297L149.654 25.2334Z" fill="white"/>
<path fill-rule="evenodd" clip-rule="evenodd" d="M25 12.0082H44.3377C56.3133 12.0082 63.7515 19.1288 63.7515 28.5594C63.7515 38.2844 55.1976 45.6358 44.1154 45.6358H34.9663V63.5422H25V12.0082ZM34.9663 37.4036H43.37V37.3951C49.5442 37.3951 53.8592 34.5198 53.8592 28.7225C53.8592 22.9252 49.7666 20.2531 43.5945 20.2531H34.9663V37.4036Z" fill="white"/>
<path fill-rule="evenodd" clip-rule="evenodd" d="M81.3954 23.9591C93.4495 23.9591 97.9106 30.8637 97.9106 40.2944L97.9043 50.5911C97.9043 56.365 98.1034 60.6802 99.0561 63.5323H89.4603C88.893 61.6372 88.7552 59.3355 88.7552 57.8259V56.5555H88.6812C87.6226 60.3605 84.4466 64.5696 76.6313 64.5696C68.2278 64.5696 63.1693 59.5198 63.1693 53.0598C63.1693 43.2246 74.1709 41.6602 79.9979 40.8323C80.4171 40.7709 80.8088 40.7158 81.1689 40.6607C86.1531 39.9175 88.5328 39.1764 88.5328 35.9094C88.5328 32.8646 85.8544 31.0818 81.4674 31.0818C77.6732 31.0818 74.8464 33.3093 73.8808 36.8749H64.8801C65.9981 30.5673 71.2787 23.9591 81.3954 23.9591ZM79.242 57.5211C84.1501 57.5211 88.6875 54.6246 88.6875 45.7149V42.4479C87.7962 44.3025 85.7867 46.0113 80.1356 47.125C75.0031 48.1729 72.6974 49.7228 72.6974 52.6193C72.6974 55.3678 74.9291 57.5211 79.242 57.5211Z" fill="white"/>
<path fill-rule="evenodd" clip-rule="evenodd" d="M178.679 24.033C167.224 24.033 158.892 32.5023 158.892 44.2282C158.892 56.4813 167 64.7218 178.605 64.7218C187.902 64.7218 194.595 59.8966 196.901 52.2487H187.373C185.958 55.5897 182.537 57.0001 178.52 57.0001C172.943 57.0001 168.78 53.14 168.033 46.9764H197.487V45.1195C197.422 33.76 191.546 24.033 178.679 24.033ZM168.116 40.5927C169.009 35.0241 172.803 31.3103 178.529 31.3103C184.703 31.3103 187.678 35.6169 188.268 40.5927H168.116Z" fill="white"/>
<path d="M112.246 25.1468V32.4622C113.99 27.0736 116.806 24.7001 124.471 24.7001V33.6861C113.399 33.6861 112.468 36.5847 112.468 46.2333V63.5342H102.874V25.1468H112.246Z" fill="white"/>
<path d="M210.702 32.4622V25.1468H201.33V63.5342H210.924V46.2333C210.924 36.5847 211.855 33.6861 222.927 33.6861V24.7001C215.262 24.7001 212.446 27.0736 210.702 32.4622Z" fill="white"/>
</svg>
