<svg width="654" height="153" viewBox="0 0 654 153" fill="none" xmlns="http://www.w3.org/2000/svg">
<path fill-rule="evenodd" clip-rule="evenodd" d="M87.8667 4.53331C91.0667 7.99998 91.7333 8.13331 94 6.53331C98 3.59998 101.2 4.26664 103.733 8.66664C104.933 10.8 106.4 12.6666 106.933 12.6666C109.467 12.6666 116 19.8667 116 22.8C116 26.5333 115.067 26.8 111.867 23.8667C108.267 20.6667 99.7333 22.4 85.3333 29.3333C73.4666 35.2 71.2 38 78.4 38C87.0667 38 106.667 45.4666 113.333 51.2L116.667 54L109.333 53.0667C98.1333 51.4667 77.6 52 69.3333 53.8667C43.3333 60.1333 22.1333 80.2666 11.6 108.667C8.53331 116.667 4.66664 132.667 1.46664 150C0.399967 155.867 0.266636 152.933 0.666637 135.333C1.46664 102.533 5.99997 79.7333 16 58.4C21.7333 46 30.5333 33.8666 38.9333 26.6666C44.6666 21.8666 64.1333 11.3333 67.4666 11.3333C68.4 11.3333 70 9.99998 70.8 8.26665C75.3333 -0.400017 81.8667 -1.86669 87.8667 4.53331ZM120.667 42.1333C121.067 42.8 120.667 43.0667 119.733 42.6667C118.8 42.4 114.4 41.4667 110.133 40.6667L102.267 39.0667L106.133 36L110 32.9333L114.933 36.9333C117.733 39.0667 120.267 41.4667 120.667 42.1333ZM551.6 58.8C559.733 61.4667 567.2 68.1333 572 76.8C575.467 83.0667 576 85.3333 575.867 94.6666C575.867 107.333 572.933 114.933 565.333 122.667C558.133 129.733 549.867 133.067 539.333 133.2C527.867 133.333 521.467 130.933 513.867 123.733C498.4 109.333 497.2 85.2 511.2 69.7333C522 57.7333 536.8 53.7333 551.6 58.8ZM634.667 59.8667C638.4 61.6 642.667 64.4 644.267 66.1333L647.2 69.4667L642.133 75.3333L637.067 81.3333L632.133 76.9333C628.133 73.3333 626.133 72.6666 620.933 72.6666C610.533 72.8 604.533 78.1333 601.867 89.6C597.2 110 616.667 125.467 631.333 113.067C633.733 111.067 635.333 108.533 635.333 106.533C635.333 103.467 634.933 103.333 627.333 103.333H619.333V96.6666V89.8667L636.4 90.2666L653.333 90.6666L653.733 97.0667C655.733 128.533 618.533 145.6 595.333 123.867C575.2 105.067 579.867 71.0667 604 59.8667C613.2 55.4667 625.467 55.4667 634.667 59.8667ZM160.667 87.3333V116.667H173.333H186V124.667V132.667H164.667H143.333V95.3333V58H152H160.667V87.3333ZM239.333 65.3333V72.6666H226.667H214V80V87.3333H226H238V94.6666V102H226H214V109.333V116.533L226.4 116.933L238.667 117.333V124.667V132L217.733 132.4L196.667 132.8V95.3333V58H218H239.333V65.3333ZM291.867 66.2666C301.333 89.0667 318 130.667 318 131.733C318 132.267 314 132.667 309.067 132.4L300 132L297.467 124.933L294.933 118H280.533H266.133L263.6 124.933L260.933 132L252.133 132.4C246.533 132.667 243.333 132.267 243.333 131.333C243.333 130.133 270.667 61.6 272.267 58.9333C272.533 58.4 276.267 58 280.533 58H288.4L291.867 66.2666ZM362.133 60C371.467 64 375.467 69.6 375.6 78.9333C376 96 366.667 104.667 347.733 104.667H340.8L340.4 118.267L340 132L331.733 132.4L323.333 132.8V95.3333V58H340.533C352.8 58 358.933 58.5333 362.133 60ZM428.667 65.3333V72.6666H415.333H402V80V87.3333H414H426V94.6666V102H414H402V117.333V132.8L393.733 132.4L385.333 132L384.933 94.9333L384.667 58H406.667H428.667V65.3333ZM478 60.9333C485.6 64.8 488.8 70.5333 488.933 79.7333C489.067 88.4 486.133 94.4 480 98.4C477.467 100 475.333 101.6 475.333 102C475.333 102.4 480.8 109.2 487.333 117.2C494 125.067 499.333 131.867 499.333 132.133C499.333 132.4 494.667 132.667 488.8 132.667H478.4L466.8 117.867L455.333 103.067V117.867V132.8L447.067 132.4L438.667 132L438.267 94.9333L438 58H455.067C470.133 58 472.8 58.4 478 60.9333ZM45.4666 72.9333C36.2666 86.8 29.2 107.467 27.2 125.2C25.7333 138.4 24.5333 137.867 22.9333 123.467C20.1333 98.8 20.5333 96.9333 31.6 83.0667C35.4666 78.4 46.1333 68.6666 47.6 68.6666C48 68.6666 46.9333 70.6666 45.4666 72.9333ZM80 12C79.3333 11.6 78.6666 9.73333 78.6666 7.86666C78.6666 6 79.2 4.93333 80 5.33333C80.8 5.73333 81.3333 7.6 81.3333 9.46667C81.3333 11.3333 80.8 12.4 80 12ZM533.067 73.6C528.8 74.4 522.4 82.4 520.667 88.6666C519.067 94.5333 520 101.867 522.933 107.733C525.6 113.2 532.267 116.667 539.6 116.667C554.133 116.667 562.4 99.3333 555.467 83.7333C554 80.6666 551.333 77.2 549.467 76C545.867 73.6 538 72.4 533.067 73.6ZM272.933 100.933C273.2 100.4 274.8 95.8667 276.533 90.9333C278.4 86 280.267 82.4 280.8 82.9333C281.333 83.6 283.333 88 285.2 92.9333L288.533 102H280.533C276.133 102 272.667 101.467 272.933 100.933ZM340.667 81.2C340.667 90.9333 340.8 91.3333 343.867 91.3333C360.667 91.3333 363.467 74 347.067 71.8667L340.667 70.9333V81.2ZM455.333 91.6V81.3333V70.9333L460.933 71.7333C474.8 73.6 474.8 88.5333 461.067 90.6666L455.333 91.6Z" fill="white"/>
</svg>
