<svg width="290" height="42" viewBox="0 0 290 42" fill="none" xmlns="http://www.w3.org/2000/svg">
<path d="M125.429 18.7008H130.194V11.6953H137.087V8.40443H130.194V4.59003H137.394V1.29917H125.429V18.7008Z" fill="white"/>
<path d="M142.869 18.7008H155.014V15.2604H147.635V1.29917H142.869V18.7008Z" fill="white"/>
<path d="M158.721 18.7008H163.564L164.973 14.9861H171.686L173.018 18.7008H178.245L171.353 1.29917H165.511L158.721 18.7008ZM170.559 11.6953H166.075L168.381 4.8892H168.432L170.559 11.6953Z" fill="white"/>
<path d="M184.522 18.7008H189.288V4.73961H193.695V1.29917H180.115V4.73961H184.522V18.7008Z" fill="white"/>
<path d="M198.99 18.7008H203.756V1.29917H198.99V18.7008Z" fill="white"/>
<path d="M210.264 18.7008H215.03V11.8199H216.029C217.797 11.8199 218.412 12.5679 219.385 15.5596L220.41 18.7008H225.381L223.639 13.964C222.742 11.8449 222.64 10.5235 221.102 10.1247V10.0748C223.408 9.55125 224.536 8.00554 224.536 5.68698C224.536 2.69529 221.948 1.29917 218.771 1.29917H210.264V18.7008ZM215.03 4.59003H216.285C218.104 4.59003 219.77 4.8892 219.77 6.5097C219.77 8.47922 217.823 8.52909 216.285 8.52909H215.03V4.59003Z" fill="white"/>
<path d="M229.891 10C229.891 15.5346 233.017 19 238.859 19C244.701 19 247.827 15.5346 247.827 10C247.827 4.41551 244.752 1 238.859 1C232.965 1 229.891 4.41551 229.891 10ZM234.81 10C234.81 6.98338 235.963 4.44044 238.859 4.44044C241.754 4.44044 242.907 6.98338 242.907 10C242.907 12.867 241.754 15.5596 238.859 15.5596C235.963 15.5596 234.81 12.867 234.81 10Z" fill="white"/>
<path d="M253.651 18.7008H258.033L257.879 6.80887H257.93L264.182 18.7008H270.101V1.29917H265.745L265.822 13.1163H265.771L259.724 1.29917H253.651V18.7008Z" fill="white"/>
<path d="M276.233 18.2521C277.822 18.7507 279.897 19 281.562 19C285.534 19 289.429 17.7784 289.429 13.2659C289.429 6.98338 280.973 8.87812 280.973 6.06094C280.973 4.54017 282.972 4.44044 284.176 4.44044C285.534 4.44044 286.918 4.68975 288.147 5.23823L288.455 1.6482C287.251 1.24931 285.56 1 283.843 1C280.256 1 276.054 2.14681 276.054 6.33518C276.054 12.6676 284.509 10.6233 284.509 13.8643C284.509 15.2604 283.074 15.5596 281.562 15.5596C279.589 15.5596 277.873 15.0609 276.643 14.4127L276.233 18.2521Z" fill="white"/>
<path d="M125.429 41.7507H129.333C133.708 41.7507 137.571 40.2548 137.571 34.5C137.571 28.7452 133.708 27.2493 129.333 27.2493H125.429V41.7507ZM128.29 29.5346H129.885C132.277 29.5346 134.587 31.3421 134.587 34.5C134.587 37.6579 132.277 39.4654 129.885 39.4654H128.29V29.5346Z" fill="#A6CDE9"/>
<path d="M142.225 41.7507H150.688V39.4654H145.087V35.3934H150.177V33.108H145.087V29.5346H150.648V27.2493H142.225V41.7507Z" fill="#A6CDE9"/>
<path d="M159.083 41.7507H162.599L167.403 27.2493H164.562L160.944 38.6343H160.903L157.244 27.2493H154.177L159.083 41.7507Z" fill="#A6CDE9"/>
<path d="M171.308 41.7507H179.771V39.4654H174.169V35.3934H179.259V33.108H174.169V29.5346H179.73V27.2493H171.308V41.7507Z" fill="#A6CDE9"/>
<path d="M184.711 41.7507H193.112V39.4654H187.573V27.2493H184.711V41.7507Z" fill="#A6CDE9"/>
<path d="M196.281 34.4584C196.281 38.9044 198.693 42 203.272 42C207.79 42 210.263 38.8421 210.263 34.4584C210.263 30.0748 207.749 27 203.272 27C198.734 27 196.281 30.0125 196.281 34.4584ZM199.265 34.4584C199.265 31.903 200.431 29.2853 203.272 29.2853C206.114 29.2853 207.279 31.903 207.279 34.4584C207.279 37.0762 206.195 39.7147 203.272 39.7147C200.349 39.7147 199.265 37.0762 199.265 34.4584Z" fill="#A6CDE9"/>
<path d="M217.547 29.5346H218.549C220.021 29.5346 221.268 30.1163 221.268 31.7992C221.268 33.482 219.98 33.9598 218.549 33.9598H217.547V29.5346ZM214.685 41.7507H217.547V36.2452H218.753C221.82 36.2452 224.252 35.0194 224.252 31.633C224.252 28.1634 221.411 27.2493 218.304 27.2493H214.685V41.7507Z" fill="#A6CDE9"/>
<path d="M228.334 41.7507H231.073V29.8255L231.114 29.7839L234.957 41.7507H237.696L241.539 29.7839H241.58V41.7507H244.319V27.2493H239.74L236.347 38.2396H236.306L232.913 27.2493H228.334V41.7507Z" fill="#A6CDE9"/>
<path d="M249.682 41.7507H258.145V39.4654H252.544V35.3934H257.634V33.108H252.544V29.5346H258.104V27.2493H249.682V41.7507Z" fill="#A6CDE9"/>
<path d="M262.942 41.7507H265.681V30.9058H265.722L271.18 41.7507H274.676V27.2493H271.937V38.0942H271.896L266.458 27.2493H262.942V41.7507Z" fill="#A6CDE9"/>
<path d="M282.478 41.7507H285.34V29.5346H289.429V27.2493H278.39V29.5346H282.478V41.7507Z" fill="#A6CDE9"/>
<path d="M67.7275 0.183507C67.7923 0.0699794 67.9122 0 68.0421 0H79.0179C80.4197 0 81.2921 1.53489 80.5839 2.7551L58.471 40.8551C58.4189 40.9449 58.3235 41 58.2204 41H47.8589C46.3404 41 45.3903 39.343 46.1476 38.0154L67.7275 0.183507Z" fill="#BCDEFF"/>
<path d="M82.3051 0.686062C82.0585 0.261135 81.607 0 81.1189 0H68.1064C68.0391 0 67.9972 0.073676 68.0312 0.132246L91.6462 40.8189C91.7113 40.9311 91.8305 41 91.9594 41H105.065C105.345 41 105.52 40.6931 105.378 40.449L82.3051 0.686062Z" fill="white"/>
<path d="M75.1812 12.4447L69.8554 21.3646L67.9546 0L75.1812 12.4447Z" fill="#8AC5FF"/>
<path d="M27.2202 11.891C27.2856 11.7815 27.4041 11.7144 27.532 11.7144H40.6369C40.9179 11.7144 41.0921 12.0188 40.9487 12.2593L24.0612 40.8234C23.9958 40.9329 23.8774 41.0001 23.7494 41.0001H10.7729C10.3682 41.0001 10.1173 40.5616 10.3239 40.2153L27.2202 11.891Z" fill="#6AB3FA"/>
<path d="M30.0178 30.7501L27.8214 11.7144L35.1428 21.9644L30.0178 30.7501Z" fill="#40A0FB"/>
<path d="M41.9756 12.4048C41.7276 11.9774 41.2708 11.7144 40.7766 11.7144H28.2283C28.0477 11.7144 27.935 11.9101 28.0257 12.0662L44.7121 40.8178C44.7776 40.9306 44.8983 41.0001 45.0288 41.0001H58.1646C58.3452 41.0001 58.4579 40.8044 58.3672 40.6482L41.9756 12.4048Z" fill="#96CCFF"/>
<path d="M12.525 22.9469C12.4583 22.8419 12.3431 22.7783 12.2194 22.7783H0.363471C0.0821148 22.7783 -0.0922315 23.0873 0.0514291 23.3313L10.3481 40.8209C10.4135 40.9319 10.532 41 10.6601 41H23.7775C23.8203 41 24.1204 40.9028 23.8753 40.9028C23.99 41 23.9017 40.8613 23.8753 40.8197L12.525 22.9469Z" fill="#3393EB"/>
</svg>
