<?xml version="1.0" standalone="no"?><!DOCTYPE svg PUBLIC "-//W3C//DTD SVG 1.1//EN" "http://www.w3.org/Graphics/SVG/1.1/DTD/svg11.dtd"><svg xmlns:xlink="http://www.w3.org/1999/xlink" version="1.1" class="highcharts-root" style="font-family: &quot;Helvetica Neue&quot;, Helvetica, Arial, sans-serif; font-size: 12px;" xmlns="http://www.w3.org/2000/svg" width="750" height="520" viewBox="0 0 750 520"><desc>Created with Highcharts 10.1.0</desc><defs><clipPath id="highcharts-cj4ech0-1299-"><rect x="0" y="0" width="687" height="420" fill="none"></rect></clipPath><clipPath id="highcharts-cj4ech0-1669-"><rect x="0" y="0" width="687" height="420" fill="none"></rect></clipPath><clipPath id="highcharts-cj4ech0-2044-"><rect x="0" y="40" width="687" height="420" fill="none"></rect></clipPath></defs><rect fill="#ffffff" class="highcharts-background" x="0" y="0" width="750" height="520" rx="0" ry="0"></rect><rect fill="none" class="highcharts-plot-background" x="0" y="40" width="687" height="420"></rect><g class="highcharts-grid highcharts-xaxis-grid" data-z-index="1"><path fill="none" stroke="#EDF3F6" stroke-width="1" stroke-dasharray="none" data-z-index="1" class="highcharts-grid-line" d="M 111.5 40 L 111.5 460" opacity="1"></path><path fill="none" stroke="#EDF3F6" stroke-width="1" stroke-dasharray="none" data-z-index="1" class="highcharts-grid-line" d="M 244.5 40 L 244.5 460" opacity="1"></path><path fill="none" stroke="#EDF3F6" stroke-width="1" stroke-dasharray="none" data-z-index="1" class="highcharts-grid-line" d="M 377.5 40 L 377.5 460" opacity="1"></path><path fill="none" stroke="#EDF3F6" stroke-width="1" stroke-dasharray="none" data-z-index="1" class="highcharts-grid-line" d="M 509.5 40 L 509.5 460" opacity="1"></path><path fill="none" stroke="#EDF3F6" stroke-width="1" stroke-dasharray="none" data-z-index="1" class="highcharts-grid-line" d="M 642.5 40 L 642.5 460" opacity="1"></path></g><g class="highcharts-grid highcharts-yaxis-grid" data-z-index="1"><path fill="none" stroke="#E7E7E7" stroke-width="1" stroke-dasharray="none" data-z-index="1" class="highcharts-grid-line" d="M 0 460.5 L 687 460.5" opacity="1"></path><path fill="none" stroke="#E7E7E7" stroke-width="1" stroke-dasharray="none" data-z-index="1" class="highcharts-grid-line" d="M 0 400.5 L 687 400.5" opacity="1"></path><path fill="none" stroke="#E7E7E7" stroke-width="1" stroke-dasharray="none" data-z-index="1" class="highcharts-grid-line" d="M 0 340.5 L 687 340.5" opacity="1"></path><path fill="none" stroke="#E7E7E7" stroke-width="1" stroke-dasharray="none" data-z-index="1" class="highcharts-grid-line" d="M 0 280.5 L 687 280.5" opacity="1"></path><path fill="none" stroke="#E7E7E7" stroke-width="1" stroke-dasharray="none" data-z-index="1" class="highcharts-grid-line" d="M 0 220.5 L 687 220.5" opacity="1"></path><path fill="none" stroke="#E7E7E7" stroke-width="1" stroke-dasharray="none" data-z-index="1" class="highcharts-grid-line" d="M 0 160.5 L 687 160.5" opacity="1"></path><path fill="none" stroke="#E7E7E7" stroke-width="1" stroke-dasharray="none" data-z-index="1" class="highcharts-grid-line" d="M 0 100.5 L 687 100.5" opacity="1"></path><path fill="none" stroke="#E7E7E7" stroke-width="1" stroke-dasharray="none" data-z-index="1" class="highcharts-grid-line" d="M 0 39.5 L 687 39.5" opacity="1"></path></g><g class="highcharts-grid highcharts-yaxis-grid" data-z-index="1"></g><g class="highcharts-grid highcharts-yaxis-grid" data-z-index="1"></g><rect fill="none" class="highcharts-plot-border" data-z-index="1" x="0" y="40" width="687" height="420"></rect><g class="highcharts-axis highcharts-xaxis" data-z-index="2"><path fill="none" class="highcharts-axis-line" stroke="#E6E6E6" stroke-width="1" data-z-index="7" d="M 0 460.5 L 687 460.5"></path></g><g class="highcharts-axis highcharts-yaxis" data-z-index="2"><path fill="none" class="highcharts-axis-line" data-z-index="7" d="M 703 40 L 703 460"></path></g><g class="highcharts-axis highcharts-yaxis" data-z-index="2"><path fill="none" class="highcharts-axis-line" stroke="#E6E6E6" stroke-width="1" data-z-index="7" d="M -1.5 40 L -1.5 460"></path></g><g class="highcharts-series-group" data-z-index="3"><g class="highcharts-series highcharts-series-0 highcharts-line-series" data-z-index="90" opacity="1" transform="translate(0,40) scale(1 1)" clip-path="url(#highcharts-cj4ech0-1669-)"><path fill="none" d="M 0 419.688 L 1.8418230563003 419.652 L 3.6836461126005 419.544 L 5.5254691689008 419.4 L 7.367292225201 419.298 L 9.2091152815013 419.088 L 11.050938337802 418.812 L 12.892761394102 418.446 L 14.734584450402 417.936 L 16.576407506702 417.204 L 18.418230563003 416.202 L 20.260053619303 414.852 L 22.101876675603 412.998 L 23.943699731903 409.992 L 25.785522788204 406.098 L 27.627345844504 400.074 L 29.469168900804 391.59 L 31.310991957105 379.086 L 33.152815013405 362.25 L 34.994638069705 363.84000000000003 L 36.836461126005 366.9 L 38.678284182306 368.88 L 40.520107238606 369.36 L 42.361930294906 369.12 L 44.203753351206 369.24 L 46.045576407507 369.6 L 47.887399463807 369.06 L 49.729222520107 366.06 L 51.571045576408 364.98 L 53.412868632708 365.7 L 55.254691689008 364.86 L 57.096514745308 363.9 L 58.938337801609 363.06 L 60.780160857909 362.826 L 62.621983914209 362.31600000000003 L 64.463806970509 362.04 L 66.30563002681 361.698 L 68.14745308311 361.32 L 69.98927613941 360.936 L 71.83109919571 360.744 L 73.672922252011 360.48 L 75.514745308311 360.12 L 77.356568364611 359.766 L 79.198391420912 359.15999999999997 L 81.040214477212 359.022 L 82.882037533512 358.74 L 84.723860589812 358.362 L 86.565683646113 358.044 L 88.407506702413 357.666 L 90.249329758713 357.264 L 92.091152815013 356.946 L 93.932975871314 356.37 L 95.774798927614 356.196 L 97.616621983914 355.788 L 99.458445040214 355.416 L 101.30026809651 355.026 L 103.14209115282 354.51 L 104.98391420912 354.246 L 106.82573726542 353.85 L 108.66756032172 353.46 L 110.50938337802 353.04 L 112.35120643432 352.62 L 114.19302949062 352.206 L 116.03485254692 351.78 L 117.87667560322 351.39 L 119.71849865952 350.976 L 121.56032171582 350.61 L 123.40214477212 350.226 L 125.24396782842 349.40999999999997 L 127.08579088472 348.96 L 128.92761394102 348.426 L 130.76943699732 347.916 L 132.61126005362 347.52 L 134.45308310992 295.8 L 136.29490616622 298.2 L 138.13672922252 317.1 L 139.97855227882 320.15999999999997 L 141.82037533512 316.86 L 143.66219839142 314.88 L 145.50402144772 311.88 L 147.34584450402 304.98 L 149.18766756032 303.84000000000003 L 151.02949061662 303.18 L 152.87131367292 304.68 L 154.71313672922 311.76 L 156.55495978552 313.02 L 158.39678284182 313.98 L 160.23860589812 315.65999999999997 L 162.08042895442 311.76 L 163.92225201072 310.62 L 165.76407506702 311.64 L 167.60589812332 313.02 L 169.44772117962 310.62 L 171.28954423592 309.42 L 173.13136729223 306.06 L 174.97319034853 301.26 L 176.81501340483 303.06 L 178.65683646113 301.8 L 180.49865951743 297.27 L 182.34048257373 290.88 L 184.18230563003 288 L 186.02412868633 277.2 L 187.86595174263 281.4 L 189.70777479893 271.68 L 191.54959785523 266.22 L 193.39142091153 259.86 L 195.23324396783 258.3 L 197.07506702413 270.36 L 198.91689008043 281.4 L 200.75871313673 275.28 L 202.60053619303 278.15999999999997 L 204.44235924933 280.56 L 206.28418230563 278.4 L 208.12600536193 268.98 L 209.96782841823 251.1 L 211.80965147453 213.6 L 213.65147453083 239.7 L 215.49329758713 194.7 L 217.33512064343 201.3 L 219.17694369973 201.12 L 221.01876675603 207.9 L 222.86058981233 209.94 L 224.70241286863 205.92 L 226.54423592493 218.34 L 228.38605898123 245.46 L 230.22788203753 241.74 L 232.06970509383 249.9 L 233.91152815013 242.1 L 235.75335120643 241.38 L 237.59517426273 246.54 L 239.43699731903 248.04 L 241.27882037534 243.3 L 243.12064343164 246.6 L 244.96246648794 243.96 L 246.80428954424 245.7 L 248.64611260054 246.3 L 250.48793565684 242.1 L 252.32975871314 228.72 L 254.17158176944 233.52 L 256.01340482574 237.9 L 257.85522788204 244.44 L 259.69705093834 248.52 L 261.53887399464 248.442 L 263.38069705094 256.86 L 265.22252010724 260.7 L 267.06434316354 263.53200000000004 L 268.90616621984 264.69 L 270.74798927614 259.26 L 272.58981233244 268.368 L 274.43163538874 275.49 L 276.27345844504 279.906 L 278.11528150134 277.26 L 279.95710455764 278.76 L 281.79892761394 286.40999999999997 L 283.64075067024 284.892 L 285.48257372654 287.88 L 287.32439678284 279.79200000000003 L 289.16621983914 287.34000000000003 L 291.00804289544 292.68 L 292.84986595174 290.22 L 294.69168900804 294.87 L 296.53351206434 281.784 L 298.37533512064 290.13599999999997 L 300.21715817694 289.44 L 302.05898123324 291.486 L 303.90080428954 289.656 L 305.74262734584 291.49199999999996 L 307.58445040214 290.15999999999997 L 309.42627345845 291.9 L 311.26809651475 292.66200000000003 L 313.10991957105 292.836 L 314.95174262735 296.52 L 316.79356568365 297.972 L 318.63538873995 304.83 L 320.47721179625 304.32 L 322.31903485255 307.14 L 324.16085790885 301.944 L 326.00268096515 310.08 L 327.84450402145 315.852 L 329.68632707775 312.168 L 331.52815013405 313.26 L 333.36997319035 314.502 L 335.21179624665 318.576 L 337.05361930295 314.676 L 338.89544235925 320.298 L 340.73726541555 322.44 L 342.57908847185 323.784 L 344.42091152815 326.034 L 346.26273458445 322.26 L 348.10455764075 305.676 L 349.94638069705 290.178 L 351.78820375335 281.83799999999997 L 353.63002680965 281.22 L 355.47184986595 280.86 L 357.31367292225 276.546 L 359.15549597855 280.99199999999996 L 360.99731903485 288.642 L 362.83914209115 301.74 L 364.68096514745 302.88 L 366.52278820375 308.13 L 368.36461126005 307.26 L 370.20643431635 313.71 L 372.04825737265 314.22 L 373.89008042895 314.7 L 375.73190348525 315.45 L 377.57372654155 306.918 L 379.41554959786 311.598 L 381.25737265416 312.984 L 383.09919571046 315.96 L 384.94101876676 310.812 L 386.78284182306 311.778 L 388.62466487936 314.85 L 390.46648793566 314.712 L 392.30831099196 318.774 L 394.15013404826 317.95799999999997 L 395.99195710456 317.13 L 397.83378016086 320.442 L 399.67560321716 319.98 L 401.51742627346 320.19 L 403.35924932976 322.11 L 405.20107238606 325.40999999999997 L 407.04289544236 325.23 L 408.88471849866 326.298 L 410.72654155496 327.09000000000003 L 412.56836461126 324.678 L 414.41018766756 307.29 L 416.25201072386 316.998 L 418.09383378016 311.532 L 419.93565683646 308.238 L 421.77747989276 315.222 L 423.61930294906 316.998 L 425.46112600536 310.45799999999997 L 427.30294906166 305.52 L 429.14477211796 298.674 L 430.98659517426 299.448 L 432.82841823056 296.622 L 434.67024128686 298.32 L 436.51206434316 298.47 L 438.35388739946 298.164 L 440.19571045576 291.9 L 442.03753351206 297.18 L 443.87935656836 300.58799999999997 L 445.72117962466 301.23 L 447.56300268097 298.59000000000003 L 449.40482573727 299.94 L 451.24664879357 291.49199999999996 L 453.08847184987 286.11 L 454.93029490617 283.416 L 456.77211796247 276.846 L 458.61394101877 287.06399999999996 L 460.45576407507 285.65999999999997 L 462.29758713137 279.87 L 464.13941018767 278.29200000000003 L 465.98123324397 275.26800000000003 L 467.82305630027 279.714 L 469.66487935657 283.716 L 471.50670241287 286.08000000000004 L 473.34852546917 285.582 L 475.19034852547 287.178 L 477.03217158177 284.196 L 478.87399463807 285.87 L 480.71581769437 273.30600000000004 L 482.55764075067 271.326 L 484.39946380697 266.094 L 486.24128686327 260.58000000000004 L 488.08310991957 259.116 L 489.92493297587 249.72 L 491.76675603217 228.318 L 493.60857908847 239.16 L 495.45040214477 229.272 L 497.29222520107 233.88 L 499.13404825737 214.776 L 500.97587131367 202.878 L 502.81769436997 183.132 L 504.65951742627 188.628 L 506.50134048257 187.95 L 508.34316353887 182.442 L 510.18498659517 180.162 L 512.02680965147 179.064 L 513.86863270777 204.45 L 515.71045576408 213.888 L 517.55227882038 203.37 L 519.39410187668 227.244 L 521.23592493298 225.174 L 523.07774798928 226.404 L 524.91957104558 224.466 L 526.76139410188 228.732 L 528.60321715818 217.038 L 530.44504021448 224.808 L 532.28686327078 230.958 L 534.12868632708 233.484 L 535.97050938338 232.62 L 537.81233243968 229.452 L 539.65415549598 226.428 L 541.49597855228 221.622 L 543.33780160858 232.446 L 545.17962466488 231.156 L 547.02144772118 230.316 L 548.86327077748 223.656 L 550.70509383378 223.644 L 552.54691689008 221.274 L 554.38873994638 228.852 L 556.23056300268 225.252 L 558.07238605898 221.724 L 559.91420911528 209.604 L 561.75603217158 196.65 L 563.59785522788 187.41 L 565.43967828418 194.658 L 567.28150134048 176.73 L 569.12332439678 177.138 L 570.96514745308 196.692 L 572.80697050938 188.028 L 574.64879356568 187.176 L 576.49061662198 201.366 L 578.33243967828 194.934 L 580.17426273458 184.572 L 582.01608579088 184.758 L 583.85790884718 184.692 L 585.69973190349 188.892 L 587.54155495979 191.25 L 589.38337801609 171.33 L 591.22520107239 170.694 L 593.06702412869 178.956 L 594.90884718499 165.816 L 596.75067024129 178.86 L 598.59249329759 163.07999999999998 L 600.43431635389 151.60199999999998 L 602.27613941019 107.72399999999999 L 604.11796246649 90.85199999999998 L 605.95978552279 99.834 L 607.80160857909 92.03399999999999 L 609.64343163539 106.56 L 611.48525469169 90.51600000000002 L 613.32707774799 83.32799999999997 L 615.16890080429 75.32400000000001 L 617.01072386059 100.08600000000001 L 618.85254691689 108.38999999999999 L 620.69436997319 92.25 L 622.53619302949 84.084 L 624.37801608579 82.11000000000001 L 626.21983914209 93.80399999999997 L 628.06166219839 106.96800000000002 L 629.90348525469 121.88400000000001 L 631.74530831099 107.262 L 633.58713136729 111.048 L 635.42895442359 93.43200000000002 L 637.27077747989 81.76799999999997 L 639.11260053619 82.56599999999997 L 640.95442359249 85.78199999999998 L 642.79624664879 101.75400000000002 L 644.63806970509 110.406 L 646.47989276139 135.66000000000003 L 648.32171581769 121.67399999999998 L 650.16353887399 136.11 L 652.00536193029 104.62799999999999 L 653.8471849866 109.596 L 655.6890080429 109.01400000000001 L 657.5308310992 95.07600000000002 L 659.3726541555 109.25400000000002 L 661.2144772118 108.894 L 663.0563002681 102.83999999999997 L 664.8981233244 115.61399999999998 L 666.7399463807 105.798 L 668.581769437 116.214 L 670.4235924933 120.81 L 672.2654155496 116.55599999999998 L 674.1072386059 132.83999999999997 L 675.9490616622 136.55399999999997 L 677.7908847185 124.92000000000002" class="highcharts-graph" data-z-index="1" stroke="#2962FF" stroke-width="2" stroke-linejoin="round" stroke-linecap="round"></path></g><g class="highcharts-markers highcharts-series-0 highcharts-line-series" data-z-index="90" opacity="1" transform="translate(0,40) scale(1 1)" clip-path="none"></g></g><text x="740" text-anchor="end" class="highcharts-title" data-z-index="4" style="color: rgb(51, 51, 51); font-size: 15px; fill: rgb(51, 51, 51);" y="513">source: tradingeconomics.com</text><text x="14" text-anchor="start" class="highcharts-subtitle" data-z-index="4" style="color: rgb(51, 51, 51); fill: rgb(51, 51, 51); font-size: 15px;" y="25">US Dollar Brazilian Real</text><text x="0" text-anchor="start" class="highcharts-caption" data-z-index="4" style="color: rgb(102, 102, 102); fill: rgb(102, 102, 102);" y="527"></text><g class="highcharts-axis-labels highcharts-xaxis-labels" data-z-index="7"><text x="112.29364946381" style="color: black; cursor: default; font-size: 15px; font-weight: 400; fill: black;" text-anchor="middle" transform="translate(0,0)" y="480" opacity="1">1998</text><text x="244.90490951743" text-anchor="middle" transform="translate(0,0)" style="color: black; cursor: default; font-size: 15px; font-weight: 400; fill: black;" y="480" opacity="1">2004</text><text x="377.57372654155" text-anchor="middle" transform="translate(0,0)" style="color: black; cursor: default; font-size: 15px; font-weight: 400; fill: black;" y="480" opacity="1">2010</text><text x="510.18498659517" text-anchor="middle" transform="translate(0,0)" style="color: black; cursor: default; font-size: 15px; font-weight: 400; fill: black;" y="480" opacity="1">2016</text><text x="642.68462100902" text-anchor="middle" transform="translate(0,0)" style="color: black; cursor: default; font-size: 15px; font-weight: 400; fill: black;" y="480" opacity="1">2022</text></g><g class="highcharts-axis-labels highcharts-yaxis-labels" data-z-index="7"><text x="0" style="color: unset; cursor: default; font-size: 15px; fill: unset;" text-anchor="start" transform="translate(0,0)" visibility="hidden"><tspan>0</tspan></text><text x="695" style="color: unset; cursor: default; font-size: 15px; fill: unset;" text-anchor="start" transform="translate(0,0)" y="405" opacity="1">1</text><text x="695" text-anchor="start" transform="translate(0,0)" style="color: unset; cursor: default; font-size: 15px; fill: unset;" y="345" opacity="1">2</text><text x="695" text-anchor="start" transform="translate(0,0)" style="color: unset; cursor: default; font-size: 15px; fill: unset;" y="285" opacity="1">3</text><text x="695" text-anchor="start" transform="translate(0,0)" style="color: unset; cursor: default; font-size: 15px; fill: unset;" y="225" opacity="1">4</text><text x="695" text-anchor="start" transform="translate(0,0)" style="color: unset; cursor: default; font-size: 15px; fill: unset;" y="165" opacity="1">5</text><text x="695" text-anchor="start" transform="translate(0,0)" style="color: unset; cursor: default; font-size: 15px; fill: unset;" y="105" opacity="1">6</text><text x="0" text-anchor="start" transform="translate(0,0)" style="color: unset; cursor: default; font-size: 15px; fill: unset;" visibility="hidden">7</text></g><g class="highcharts-axis-labels highcharts-yaxis-labels" data-z-index="7"></g><g class="highcharts-axis-labels highcharts-yaxis-labels" data-z-index="7"></g><g class="highcharts-control-points" data-z-index="99" clip-path="url(#highcharts-cj4ech0-2044-)"></g><g class="highcharts-axis highcharts-yaxis" data-z-index="9999"><path fill="none" class="highcharts-tick" stroke="#E7E7E7" stroke-width="1" d="M 688 460.5 L 693 460.5" opacity="1"></path><path fill="none" class="highcharts-tick" stroke="#E7E7E7" stroke-width="1" d="M 688 400.5 L 693 400.5" opacity="1"></path><path fill="none" class="highcharts-tick" stroke="#E7E7E7" stroke-width="1" d="M 688 340.5 L 693 340.5" opacity="1"></path><path fill="none" class="highcharts-tick" stroke="#E7E7E7" stroke-width="1" d="M 688 280.5 L 693 280.5" opacity="1"></path><path fill="none" class="highcharts-tick" stroke="#E7E7E7" stroke-width="1" d="M 688 220.5 L 693 220.5" opacity="1"></path><path fill="none" class="highcharts-tick" stroke="#E7E7E7" stroke-width="1" d="M 688 160.5 L 693 160.5" opacity="1"></path><path fill="none" class="highcharts-tick" stroke="#E7E7E7" stroke-width="1" d="M 688 100.5 L 693 100.5" opacity="1"></path><path fill="none" class="highcharts-tick" stroke="#E7E7E7" stroke-width="1" d="M 688 39.5 L 693 39.5" opacity="1"></path><path fill="none" class="highcharts-axis-line" stroke="#E6E6E6" stroke-width="1" data-z-index="7" d="M 688.5 40 L 688.5 460"></path></g><path fill="none" d="M 0 0 L 1536 0" stroke="#524f4f" stroke-width="1" stroke-dasharray="8,3" data-z-index="6" visibility="hidden" class="crosshair-fix-horizontal"></path><path fill="none" d="M 0 40 L 0 904" stroke="#524f4f" stroke-width="1" stroke-dasharray="8,3" data-z-index="6" visibility="hidden" class="crosshair-fix-vertical"></path></svg>