<svg width="150" height="27" viewBox="0 0 150 27" fill="none" xmlns="http://www.w3.org/2000/svg">
<g clip-path="url(#clip0_59_153)">
<path d="M40.6012 19.63V11.8369H44.0477V8.85824H40.6012V4.45947H37.1721V8.85824H33.7198V11.8427H37.1721V19.7339C37.1721 23.6131 39.4235 26.2801 43.6493 26.2801C44.8963 26.2801 46.2471 25.8991 47.1131 25.3103V22.1584C46.2818 22.7472 45.0696 23.1629 43.9612 23.1629C41.9175 23.1629 40.6012 21.8467 40.6012 19.63Z" fill="white"/>
<path d="M57.5292 8.47705C52.4375 8.47705 48.9391 12.4602 48.9391 17.3439C48.9391 22.5739 52.7839 26.3146 57.9449 26.3146C61.2701 26.3146 64.0065 24.7559 65.4959 21.8465L62.8634 20.4957C61.8589 22.3661 59.9885 23.2666 57.9102 23.2666C54.8621 23.2666 52.6453 21.2231 52.2643 18.3137H65.8423V16.9282C65.8423 12.1831 62.6556 8.47705 57.5292 8.47705ZM52.4029 16.097C52.7492 13.5685 54.6197 11.5596 57.4946 11.5596C60.3695 11.5596 62.2746 13.3954 62.4132 16.097H52.4029Z" fill="white"/>
<path d="M76.5678 11.8024C78.5768 11.8024 80.274 12.7722 81.2785 14.6079L84.1188 13.0146C82.5601 9.96668 79.6852 8.54661 76.5678 8.54661C71.6839 8.51197 67.7006 12.5297 67.7006 17.4134C67.7006 22.2971 71.6839 26.3841 76.5678 26.3148C79.6852 26.3148 82.5601 24.9294 84.1188 21.8468L81.2785 20.2882C80.274 22.1239 78.5768 23.0937 76.5678 23.0937C73.589 23.0937 71.1297 20.5306 71.1297 17.4134C71.1297 14.2962 73.589 11.8024 76.5678 11.8024Z" fill="white"/>
<path d="M95.6496 8.52931C93.3635 8.52931 91.3199 9.42985 90.0036 10.8499V1.15186H86.5745V25.9166H90.0036V17.5C90.0036 14.2096 92.1165 11.7851 95.13 11.7851C98.3513 11.7851 100.014 14.3828 100.014 17.3961V25.9166H103.443V17.0498C103.443 11.8544 100.637 8.52931 95.6496 8.52931Z" fill="white"/>
<path d="M132.491 8.95095H128.462L125.292 14.7698L121.927 8.95095H111.893V7.17874C111.893 4.9274 113.175 3.99223 115.288 3.99223C116.258 3.99223 117.262 4.26932 118.059 4.75423V1.49845C117.193 1.08282 116.119 0.875 114.976 0.875C110.716 0.875 108.464 3.5766 108.464 7.17874V8.94517H105.243V11.9239H108.464V25.9168H111.893V11.9239H119.358C120.818 14.2041 122.423 16.7152 122.423 16.7152L116.841 25.9226H120.98L124.836 19.1512L128.75 25.9226H133.236L127.705 16.8826L132.497 8.95672L132.491 8.95095Z" fill="white"/>
<path d="M149.79 23.2266H137.909V25.8243H149.79V23.2266Z" fill="white"/>
<path d="M25.7511 8.63379V26.8754H14.9095V23.2271H22.1372V12.2821H14.9095V8.63379H25.7511Z" fill="white"/>
<path d="M4.01157 23.2153H11.2393V26.8637H0.397705V8.62207H11.2393V12.2704H4.01157V23.2153Z" fill="white"/>
</g>
<defs>
<clipPath id="clip0_59_153">
<rect width="150" height="27" fill="white"/>
</clipPath>
</defs>
</svg>
